<svg xmlns="http://www.w3.org/2000/svg" viewBox="0 0 100 100">
  <!-- 黑龍 M2 -->
  <defs>
    <radialGradient id="m2Glow" cx="50%" cy="50%" r="50%">
      <stop offset="0%" stop-color="#6A0DAD" stop-opacity="0.5"/>
      <stop offset="100%" stop-color="#0D0A1A" stop-opacity="0"/>
    </radialGradient>
  </defs>
  <circle cx="50" cy="50" r="48" fill="#0D0A1A" stroke="#6A0DAD" stroke-width="2.5"/>
  <circle cx="50" cy="50" r="48" fill="url(#m2Glow)"/>
  <!-- 龍身 -->
  <path d="M20 75 Q25 55 40 45 Q50 38 60 42 Q72 46 78 38 Q82 32 78 25 Q75 20 68 22 Q72 28 68 32 Q62 36 55 34 Q44 30 38 36 Q28 44 22 60 Q18 70 20 80 Z" fill="#1A1A2E" stroke="#6A0DAD" stroke-width="2"/>
  <!-- 龍頭 -->
  <ellipse cx="72" cy="28" rx="16" ry="12" fill="#1A1A2E" stroke="#9B59B6" stroke-width="2"/>
  <!-- 龍角 -->
  <path d="M68 18 L62 8 L70 16" fill="#C9A227" stroke="#C9A227" stroke-width="1"/>
  <path d="M76 18 L80 8 L74 16" fill="#C9A227" stroke="#C9A227" stroke-width="1"/>
  <!-- 龍眼 -->
  <circle cx="68" cy="26" r="4" fill="#FF0000"/>
  <circle cx="68" cy="26" r="2" fill="#FFD700"/>
  <circle cx="69" cy="25" r="1" fill="#1A1A1A"/>
  <!-- 龍鱗 -->
  <path d="M30 62 Q34 58 38 62 Q34 66 30 62" fill="#9B59B6" opacity="0.6"/>
  <path d="M38 56 Q42 52 46 56 Q42 60 38 56" fill="#9B59B6" opacity="0.6"/>
  <path d="M46 50 Q50 46 54 50 Q50 54 46 50" fill="#9B59B6" opacity="0.6"/>
  <!-- 火焰 -->
  <path d="M82 20 Q90 15 88 25 Q86 32 80 30" fill="#FF6600" opacity="0.8"/>
  <path d="M84 18 Q92 12 90 22 Q88 28 82 26" fill="#FFD700" opacity="0.6"/>
  <!-- M2 文字 -->
  <text x="50" y="97" font-family="Arial" font-size="9" font-weight="900" fill="#9B59B6" text-anchor="middle" letter-spacing="0.5">黑龍</text>
</svg>
