<svg viewBox="0 0 520 300" xmlns="http://www.w3.org/2000/svg" preserveAspectRatio="xMidYMid slice">
  <defs>
    <radialGradient id="cg" cx="40%" cy="30%">
      <stop offset="0%" style="stop-color:#ffffff;stop-opacity:0.18" />
      <stop offset="100%" style="stop-color:#B8DCFF;stop-opacity:0.03" />
    </radialGradient>
    <radialGradient id="bb" cx="35%" cy="35%">
      <stop offset="0%" style="stop-color:#ffffff;stop-opacity:0.22" />
      <stop offset="70%" style="stop-color:#66E6FF;stop-opacity:0.1" />
      <stop offset="100%" style="stop-color:#00D4FF;stop-opacity:0.03" />
    </radialGradient>
  </defs>
  <rect width="520" height="300" fill="none" />
  <g opacity="0.5" transform="translate(50, 40)">
    <circle cx="0" cy="0" r="35" fill="url(#cg)" />
    <circle cx="25" cy="-8" r="28" fill="url(#cg)" />
    <circle cx="45" cy="5" r="32" fill="url(#cg)" />
    <circle cx="65" cy="-5" r="26" fill="url(#cg)" />
  </g>
  <g opacity="0.4" transform="translate(400, 55)">
    <circle cx="0" cy="0" r="30" fill="url(#cg)" />
    <circle cx="25" cy="-6" r="24" fill="url(#cg)" />
    <circle cx="45" cy="3" r="28" fill="url(#cg)" />
  </g>
  <g opacity="0.45" transform="translate(230, 230)">
    <circle cx="0" cy="0" r="32" fill="url(#cg)" />
    <circle cx="28" cy="-6" r="26" fill="url(#cg)" />
    <circle cx="52" cy="3" r="30" fill="url(#cg)" />
    <circle cx="75" cy="-4" r="24" fill="url(#cg)" />
  </g>
  <g opacity="0.5" transform="translate(85, 130)">
    <circle cx="0" cy="0" r="20" fill="url(#bb)" />
    <circle cx="0" cy="0" r="20" stroke="#ffffff" stroke-width="0.8" fill="none" opacity="0.2"/>
    <circle cx="-5" cy="-5" r="3" fill="#ffffff" opacity="0.35"/>
  </g>
  <g opacity="0.45" transform="translate(450, 160)">
    <circle cx="0" cy="0" r="18" fill="url(#bb)" />
    <circle cx="0" cy="0" r="18" stroke="#ffffff" stroke-width="0.8" fill="none" opacity="0.2"/>
    <circle cx="-4" cy="-4" r="2.5" fill="#ffffff" opacity="0.3"/>
  </g>
  <g opacity="0.4" transform="translate(260, 90)">
    <circle cx="0" cy="0" r="15" fill="url(#bb)" />
    <circle cx="0" cy="0" r="15" stroke="#ffffff" stroke-width="0.7" fill="none" opacity="0.18"/>
  </g>
  <g opacity="0.35" transform="translate(140, 260)">
    <circle cx="0" cy="0" r="14" fill="url(#bb)" />
  </g>
  <g opacity="0.38" transform="translate(400, 260)">
    <circle cx="0" cy="0" r="16" fill="url(#bb)" />
  </g>
  <path d="M 0,150 Q 130,130 260,150 T 520,150" stroke="#ffffff" stroke-width="0.8" fill="none" opacity="0.08" />
  <path d="M 0,170 Q 130,190 260,170 T 520,170" stroke="#ffffff" stroke-width="0.6" fill="none" opacity="0.06" />
  <circle cx="170" cy="50" r="1.8" fill="#ffffff" opacity="0.2" />
  <circle cx="360" cy="200" r="1.3" fill="#ffffff" opacity="0.18" />
  <circle cx="110" cy="220" r="1.5" fill="#66E6FF" opacity="0.15" />
  <circle cx="430" cy="90" r="1.2" fill="#ffffff" opacity="0.15" />
</svg>
