<svg xmlns="http://www.w3.org/2000/svg" viewBox="0 0 100 100">
  <defs>
    <linearGradient id="s7g" x1="0%" y1="0%" x2="100%" y2="100%">
      <stop offset="0%" stop-color="#ff4040"/>
      <stop offset="50%" stop-color="#dd1010"/>
      <stop offset="100%" stop-color="#880000"/>
    </linearGradient>
    <linearGradient id="s7outline" x1="0%" y1="0%" x2="0%" y2="100%">
      <stop offset="0%" stop-color="#ffd700"/>
      <stop offset="100%" stop-color="#b8860b"/>
    </linearGradient>
    <filter id="s7glow">
      <feDropShadow dx="0" dy="0" stdDeviation="3" flood-color="#ffd700" flood-opacity="0.5"/>
    </filter>
    <filter id="s7shadow">
      <feDropShadow dx="2" dy="2" stdDeviation="1.5" flood-color="#000" flood-opacity="0.3"/>
    </filter>
  </defs>
  <!-- Gold outline / background shape -->
  <path d="M22,12 L78,12 C80,12 82,14 82,16 L82,22 L48,88 C46,92 42,92 40,88 L38,84 L68,22 L68,20 L22,20 L22,16 C22,14 24,12 26,12 Z"
    fill="url(#s7outline)" filter="url(#s7glow)" transform="translate(0,0)"/>
  <!-- Red "7" -->
  <path d="M25,15 L75,15 C77,15 78,16 78,18 L78,25 L46,85 C45,87 43,87 42,85 L42,83 L72,25 L72,23 L25,23 L25,18 C25,16 26,15 28,15 Z"
    fill="url(#s7g)" stroke="#880000" stroke-width="0.5" filter="url(#s7shadow)"/>
  <!-- Highlight stripe -->
  <path d="M30,17 L72,17 L72,21 L60,21 L30,21 Z"
    fill="#ff8080" opacity="0.5"/>
  <!-- Diagonal highlight -->
  <path d="M65,25 L60,38 L56,38 L61,25 Z"
    fill="#ff6060" opacity="0.4"/>
  <!-- Shine -->
  <circle cx="35" cy="18" r="2" fill="#ffffff" opacity="0.5"/>
</svg>
